<svg xmlns="http://www.w3.org/2000/svg" xmlns:xlink="http://www.w3.org/1999/xlink" width="351" height="377" viewBox="0 0 351 377">
  <defs>
    <clipPath id="clip-Web_1920_1">
      <rect width="351" height="377"/>
    </clipPath>
  </defs>
  <g id="Web_1920_1" data-name="Web 1920 – 1" clip-path="url(#clip-Web_1920_1)">
    <rect width="351" height="377" fill="#fff"/>
    <g id="Rectangle_1" data-name="Rectangle 1" transform="translate(40 21)" fill="#ffb7b7" stroke="#707070" stroke-width="1">
      <rect width="31" height="31" stroke="none"/>
      <rect x="0.5" y="0.5" width="30" height="30" fill="none"/>
    </g>
    <g id="Rectangle_2" data-name="Rectangle 2" transform="translate(77 21)" fill="#ffb7b7" stroke="#707070" stroke-width="1">
      <rect width="31" height="31" stroke="none"/>
      <rect x="0.5" y="0.5" width="30" height="30" fill="none"/>
    </g>
    <g id="Rectangle_3" data-name="Rectangle 3" transform="translate(40 59)" fill="#ffb7b7" stroke="#707070" stroke-width="1">
      <rect width="31" height="30" stroke="none"/>
      <rect x="0.5" y="0.5" width="30" height="29" fill="none"/>
    </g>
    <g id="Rectangle_4" data-name="Rectangle 4" transform="translate(77 59)" fill="#ffb7b7" stroke="#707070" stroke-width="1">
      <rect width="31" height="30" stroke="none"/>
      <rect x="0.5" y="0.5" width="30" height="29" fill="none"/>
    </g>
    <g id="Rectangle_5" data-name="Rectangle 5" transform="translate(115 21)" fill="#ffb7b7" stroke="#707070" stroke-width="1">
      <rect width="30" height="31" stroke="none"/>
      <rect x="0.5" y="0.5" width="29" height="30" fill="none"/>
    </g>
    <g id="Rectangle_6" data-name="Rectangle 6" transform="translate(152 21)" fill="#ffb7b7" stroke="#707070" stroke-width="1">
      <rect width="31" height="31" stroke="none"/>
      <rect x="0.5" y="0.5" width="30" height="30" fill="none"/>
    </g>
    <g id="Rectangle_7" data-name="Rectangle 7" transform="translate(115 59)" fill="#fff" stroke="#707070" stroke-width="1">
      <rect width="30" height="30" stroke="none"/>
      <rect x="0.5" y="0.5" width="29" height="29" fill="none"/>
    </g>
    <g id="Rectangle_8" data-name="Rectangle 8" transform="translate(152 59)" fill="#fff" stroke="#707070" stroke-width="1">
      <rect width="31" height="30" stroke="none"/>
      <rect x="0.5" y="0.5" width="30" height="29" fill="none"/>
    </g>
    <g id="Rectangle_9" data-name="Rectangle 9" transform="translate(40 96)" fill="#ffb7b7" stroke="#707070" stroke-width="1">
      <rect width="31" height="31" stroke="none"/>
      <rect x="0.5" y="0.5" width="30" height="30" fill="none"/>
    </g>
    <g id="Rectangle_10" data-name="Rectangle 10" transform="translate(77 96)" fill="#ffb7b7" stroke="#707070" stroke-width="1">
      <rect width="31" height="31" stroke="none"/>
      <rect x="0.5" y="0.5" width="30" height="30" fill="none"/>
    </g>
    <g id="Rectangle_11" data-name="Rectangle 11" transform="translate(40 134)" fill="#ffb7b7" stroke="#707070" stroke-width="1">
      <rect width="31" height="30" stroke="none"/>
      <rect x="0.5" y="0.5" width="30" height="29" fill="none"/>
    </g>
    <g id="Rectangle_12" data-name="Rectangle 12" transform="translate(77 134)" fill="#ffb7b7" stroke="#707070" stroke-width="1">
      <rect width="31" height="30" stroke="none"/>
      <rect x="0.5" y="0.5" width="30" height="29" fill="none"/>
    </g>
    <g id="Rectangle_13" data-name="Rectangle 13" transform="translate(115 96)" fill="#fff" stroke="#707070" stroke-width="1">
      <rect width="30" height="31" stroke="none"/>
      <rect x="0.5" y="0.5" width="29" height="30" fill="none"/>
    </g>
    <g id="Rectangle_14" data-name="Rectangle 14" transform="translate(152 96)" fill="#fff" stroke="#707070" stroke-width="1">
      <rect width="31" height="31" stroke="none"/>
      <rect x="0.5" y="0.5" width="30" height="30" fill="none"/>
    </g>
    <g id="Rectangle_15" data-name="Rectangle 15" transform="translate(115 134)" fill="#fff" stroke="#707070" stroke-width="1">
      <rect width="30" height="30" stroke="none"/>
      <rect x="0.5" y="0.5" width="29" height="29" fill="none"/>
    </g>
    <g id="Rectangle_16" data-name="Rectangle 16" transform="translate(152 134)" fill="#fff" stroke="#707070" stroke-width="1">
      <rect width="31" height="30" stroke="none"/>
      <rect x="0.5" y="0.5" width="30" height="29" fill="none"/>
    </g>
    <g id="Rectangle_17" data-name="Rectangle 17" transform="translate(189 21)" fill="#ffb7b7" stroke="#707070" stroke-width="1">
      <rect width="32" height="31" stroke="none"/>
      <rect x="0.5" y="0.5" width="31" height="30" fill="none"/>
    </g>
    <g id="Rectangle_18" data-name="Rectangle 18" transform="translate(228 21)" fill="#ffb7b7" stroke="#707070" stroke-width="1">
      <rect width="30" height="31" stroke="none"/>
      <rect x="0.5" y="0.5" width="29" height="30" fill="none"/>
    </g>
    <g id="Rectangle_19" data-name="Rectangle 19" transform="translate(189 59)" fill="#fff" stroke="#707070" stroke-width="1">
      <rect width="32" height="30" stroke="none"/>
      <rect x="0.5" y="0.5" width="31" height="29" fill="none"/>
    </g>
    <g id="Rectangle_20" data-name="Rectangle 20" transform="translate(228 59)" fill="#fff" stroke="#707070" stroke-width="1">
      <rect width="30" height="30" stroke="none"/>
      <rect x="0.5" y="0.5" width="29" height="29" fill="none"/>
    </g>
    <g id="Rectangle_21" data-name="Rectangle 21" transform="translate(265 21)" fill="#ffb7b7" stroke="#707070" stroke-width="1">
      <rect width="31" height="31" stroke="none"/>
      <rect x="0.5" y="0.5" width="30" height="30" fill="none"/>
    </g>
    <g id="Rectangle_22" data-name="Rectangle 22" transform="translate(302 21)" fill="#ffb7b7" stroke="#707070" stroke-width="1">
      <rect width="31" height="31" stroke="none"/>
      <rect x="0.5" y="0.5" width="30" height="30" fill="none"/>
    </g>
    <g id="Rectangle_23" data-name="Rectangle 23" transform="translate(265 59)" fill="#fff" stroke="#707070" stroke-width="1">
      <rect width="31" height="30" stroke="none"/>
      <rect x="0.5" y="0.5" width="30" height="29" fill="none"/>
    </g>
    <g id="Rectangle_24" data-name="Rectangle 24" transform="translate(302 59)" fill="#fff" stroke="#707070" stroke-width="1">
      <rect width="31" height="30" stroke="none"/>
      <rect x="0.5" y="0.5" width="30" height="29" fill="none"/>
    </g>
    <g id="Rectangle_25" data-name="Rectangle 25" transform="translate(189 96)" fill="#fff" stroke="#707070" stroke-width="1">
      <rect width="32" height="31" stroke="none"/>
      <rect x="0.5" y="0.5" width="31" height="30" fill="none"/>
    </g>
    <g id="Rectangle_26" data-name="Rectangle 26" transform="translate(228 96)" fill="#fff" stroke="#707070" stroke-width="1">
      <rect width="30" height="31" stroke="none"/>
      <rect x="0.5" y="0.5" width="29" height="30" fill="none"/>
    </g>
    <g id="Rectangle_27" data-name="Rectangle 27" transform="translate(189 134)" fill="#fff" stroke="#707070" stroke-width="1">
      <rect width="32" height="30" stroke="none"/>
      <rect x="0.5" y="0.5" width="31" height="29" fill="none"/>
    </g>
    <g id="Rectangle_28" data-name="Rectangle 28" transform="translate(228 134)" fill="#fff" stroke="#707070" stroke-width="1">
      <rect width="30" height="30" stroke="none"/>
      <rect x="0.5" y="0.5" width="29" height="29" fill="none"/>
    </g>
    <g id="Rectangle_29" data-name="Rectangle 29" transform="translate(265 96)" fill="#fff" stroke="#707070" stroke-width="1">
      <rect width="31" height="31" stroke="none"/>
      <rect x="0.5" y="0.5" width="30" height="30" fill="none"/>
    </g>
    <g id="Rectangle_30" data-name="Rectangle 30" transform="translate(302 96)" fill="#ffefce" stroke="#707070" stroke-width="1">
      <rect width="31" height="31" stroke="none"/>
      <rect x="0.5" y="0.5" width="30" height="30" fill="none"/>
    </g>
    <g id="Rectangle_31" data-name="Rectangle 31" transform="translate(265 134)" fill="#ffefce" stroke="#707070" stroke-width="1">
      <rect width="31" height="30" stroke="none"/>
      <rect x="0.5" y="0.5" width="30" height="29" fill="none"/>
    </g>
    <g id="Rectangle_32" data-name="Rectangle 32" transform="translate(302 134)" fill="#ffefce" stroke="#707070" stroke-width="1">
      <rect width="31" height="30" stroke="none"/>
      <rect x="0.5" y="0.5" width="30" height="29" fill="none"/>
    </g>
    <g id="Rectangle_33" data-name="Rectangle 33" transform="translate(40 171)" fill="#ffb7b7" stroke="#707070" stroke-width="1">
      <rect width="31" height="31" stroke="none"/>
      <rect x="0.5" y="0.5" width="30" height="30" fill="none"/>
    </g>
    <g id="Rectangle_34" data-name="Rectangle 34" transform="translate(77 171)" fill="#ffb7b7" stroke="#707070" stroke-width="1">
      <rect width="31" height="31" stroke="none"/>
      <rect x="0.5" y="0.5" width="30" height="30" fill="none"/>
    </g>
    <g id="Rectangle_35" data-name="Rectangle 35" transform="translate(40 208)" fill="#ffb7b7" stroke="#707070" stroke-width="1">
      <rect width="31" height="31" stroke="none"/>
      <rect x="0.5" y="0.5" width="30" height="30" fill="none"/>
    </g>
    <g id="Rectangle_36" data-name="Rectangle 36" transform="translate(77 208)" fill="#ffb7b7" stroke="#707070" stroke-width="1">
      <rect width="31" height="31" stroke="none"/>
      <rect x="0.5" y="0.5" width="30" height="30" fill="none"/>
    </g>
    <g id="Rectangle_37" data-name="Rectangle 37" transform="translate(115 171)" fill="#fff" stroke="#707070" stroke-width="1">
      <rect width="30" height="31" stroke="none"/>
      <rect x="0.5" y="0.5" width="29" height="30" fill="none"/>
    </g>
    <g id="Rectangle_38" data-name="Rectangle 38" transform="translate(152 171)" fill="#fff" stroke="#707070" stroke-width="1">
      <rect width="31" height="31" stroke="none"/>
      <rect x="0.5" y="0.5" width="30" height="30" fill="none"/>
    </g>
    <g id="Rectangle_39" data-name="Rectangle 39" transform="translate(115 208)" fill="#fff" stroke="#707070" stroke-width="1">
      <rect width="30" height="31" stroke="none"/>
      <rect x="0.5" y="0.5" width="29" height="30" fill="none"/>
    </g>
    <g id="Rectangle_40" data-name="Rectangle 40" transform="translate(152 208)" fill="#fff" stroke="#707070" stroke-width="1">
      <rect width="31" height="31" stroke="none"/>
      <rect x="0.5" y="0.5" width="30" height="30" fill="none"/>
    </g>
    <g id="Rectangle_41" data-name="Rectangle 41" transform="translate(40 246)" fill="#ffb7b7" stroke="#707070" stroke-width="1">
      <rect width="31" height="31" stroke="none"/>
      <rect x="0.5" y="0.5" width="30" height="30" fill="none"/>
    </g>
    <g id="Rectangle_42" data-name="Rectangle 42" transform="translate(77 246)" fill="#ffb7b7" stroke="#707070" stroke-width="1">
      <rect width="31" height="31" stroke="none"/>
      <rect x="0.5" y="0.5" width="30" height="30" fill="none"/>
    </g>
    <g id="Rectangle_43" data-name="Rectangle 43" transform="translate(40 284)" fill="#ffb7b7" stroke="#707070" stroke-width="1">
      <rect width="31" height="31" stroke="none"/>
      <rect x="0.5" y="0.5" width="30" height="30" fill="none"/>
    </g>
    <g id="Rectangle_44" data-name="Rectangle 44" transform="translate(77 284)" fill="#ffb7b7" stroke="#707070" stroke-width="1">
      <rect width="31" height="31" stroke="none"/>
      <rect x="0.5" y="0.5" width="30" height="30" fill="none"/>
    </g>
    <g id="Rectangle_45" data-name="Rectangle 45" transform="translate(115 246)" fill="#fff" stroke="#707070" stroke-width="1">
      <rect width="30" height="31" stroke="none"/>
      <rect x="0.5" y="0.5" width="29" height="30" fill="none"/>
    </g>
    <g id="Rectangle_46" data-name="Rectangle 46" transform="translate(152 246)" fill="#ffefce" stroke="#707070" stroke-width="1">
      <rect width="31" height="31" stroke="none"/>
      <rect x="0.5" y="0.5" width="30" height="30" fill="none"/>
    </g>
    <g id="Rectangle_47" data-name="Rectangle 47" transform="translate(115 284)" fill="#ffefce" stroke="#707070" stroke-width="1">
      <rect width="30" height="31" stroke="none"/>
      <rect x="0.5" y="0.5" width="29" height="30" fill="none"/>
    </g>
    <g id="Rectangle_48" data-name="Rectangle 48" transform="translate(152 284)" fill="#ffefce" stroke="#707070" stroke-width="1">
      <rect width="31" height="31" stroke="none"/>
      <rect x="0.5" y="0.5" width="30" height="30" fill="none"/>
    </g>
    <g id="Rectangle_49" data-name="Rectangle 49" transform="translate(189 171)" fill="#fff" stroke="#707070" stroke-width="1">
      <rect width="32" height="31" stroke="none"/>
      <rect x="0.5" y="0.5" width="31" height="30" fill="none"/>
    </g>
    <g id="Rectangle_50" data-name="Rectangle 50" transform="translate(228 171)" fill="#ffefce" stroke="#707070" stroke-width="1">
      <rect width="30" height="31" stroke="none"/>
      <rect x="0.5" y="0.5" width="29" height="30" fill="none"/>
    </g>
    <g id="Rectangle_51" data-name="Rectangle 51" transform="translate(189 208)" fill="#ffefce" stroke="#707070" stroke-width="1">
      <rect width="32" height="31" stroke="none"/>
      <rect x="0.5" y="0.5" width="31" height="30" fill="none"/>
    </g>
    <g id="Rectangle_52" data-name="Rectangle 52" transform="translate(228 208)" fill="#ffefce" stroke="#707070" stroke-width="1">
      <rect width="30" height="31" stroke="none"/>
      <rect x="0.5" y="0.5" width="29" height="30" fill="none"/>
    </g>
    <g id="Rectangle_53" data-name="Rectangle 53" transform="translate(265 171)" fill="#ffefce" stroke="#707070" stroke-width="1">
      <rect width="31" height="31" stroke="none"/>
      <rect x="0.5" y="0.5" width="30" height="30" fill="none"/>
    </g>
    <g id="Rectangle_54" data-name="Rectangle 54" transform="translate(302 171)" fill="#ffefce" stroke="#707070" stroke-width="1">
      <rect width="31" height="31" stroke="none"/>
      <rect x="0.5" y="0.5" width="30" height="30" fill="none"/>
    </g>
    <g id="Rectangle_55" data-name="Rectangle 55" transform="translate(265 208)" fill="#ffefce" stroke="#707070" stroke-width="1">
      <rect width="31" height="31" stroke="none"/>
      <rect x="0.5" y="0.5" width="30" height="30" fill="none"/>
    </g>
    <g id="Rectangle_56" data-name="Rectangle 56" transform="translate(302 208)" fill="#ffefce" stroke="#707070" stroke-width="1">
      <rect width="31" height="31" stroke="none"/>
      <rect x="0.5" y="0.5" width="30" height="30" fill="none"/>
    </g>
    <g id="Rectangle_57" data-name="Rectangle 57" transform="translate(189 246)" fill="#ffefce" stroke="#707070" stroke-width="1">
      <rect width="32" height="31" stroke="none"/>
      <rect x="0.5" y="0.5" width="31" height="30" fill="none"/>
    </g>
    <g id="Rectangle_58" data-name="Rectangle 58" transform="translate(228 246)" fill="#ffefce" stroke="#707070" stroke-width="1">
      <rect width="30" height="31" stroke="none"/>
      <rect x="0.5" y="0.5" width="29" height="30" fill="none"/>
    </g>
    <g id="Rectangle_59" data-name="Rectangle 59" transform="translate(189 284)" fill="#ffefce" stroke="#707070" stroke-width="1">
      <rect width="32" height="31" stroke="none"/>
      <rect x="0.5" y="0.5" width="31" height="30" fill="none"/>
    </g>
    <g id="Rectangle_60" data-name="Rectangle 60" transform="translate(228 284)" fill="#ffefce" stroke="#707070" stroke-width="1">
      <rect width="30" height="31" stroke="none"/>
      <rect x="0.5" y="0.5" width="29" height="30" fill="none"/>
    </g>
    <g id="Rectangle_61" data-name="Rectangle 61" transform="translate(265 246)" fill="#ffefce" stroke="#707070" stroke-width="1">
      <rect width="31" height="31" stroke="none"/>
      <rect x="0.5" y="0.5" width="30" height="30" fill="none"/>
    </g>
    <g id="Rectangle_62" data-name="Rectangle 62" transform="translate(302 246)" fill="#ffefce" stroke="#707070" stroke-width="1">
      <rect width="31" height="31" stroke="none"/>
      <rect x="0.5" y="0.5" width="30" height="30" fill="none"/>
    </g>
    <g id="Rectangle_63" data-name="Rectangle 63" transform="translate(265 284)" fill="#ffefce" stroke="#707070" stroke-width="1">
      <rect width="31" height="31" stroke="none"/>
      <rect x="0.5" y="0.5" width="30" height="30" fill="none"/>
    </g>
    <g id="Rectangle_64" data-name="Rectangle 64" transform="translate(302 284)" fill="#ffefce" stroke="#707070" stroke-width="1">
      <rect width="31" height="31" stroke="none"/>
      <rect x="0.5" y="0.5" width="30" height="30" fill="none"/>
    </g>
    <text id="Preserved_columns" data-name="Preserved columns" transform="translate(28.335 220.28) rotate(-90)" fill="#707070" font-size="12" font-family="SegoeUI, Segoe UI"><tspan x="0" y="0">Preserved columns</tspan></text>
    <g id="Rectangle_65" data-name="Rectangle 65" transform="translate(15 9)" fill="none" stroke="#707070" stroke-width="1">
      <rect width="97" height="316" stroke="none"/>
      <rect x="0.5" y="0.5" width="96" height="315" fill="none"/>
    </g>
    <line id="Line_1" data-name="Line 1" y2="247.777" transform="translate(318.025 111.794)" fill="none" stroke="#707070" stroke-width="1"/>
    <line id="Line_2" data-name="Line 2" x1="187.507" transform="translate(130.518 359.571)" fill="none" stroke="#707070" stroke-width="1"/>
    <line id="Line_3" data-name="Line 3" y1="187.507" x2="187.507" transform="translate(130.518 111.794)" fill="none" stroke="#707070" stroke-width="1"/>
    <text id="Required_to_ensure_orthogonality" data-name="Required to ensure
orthogonality" transform="translate(221 332)" fill="#707070" font-size="12" font-family="SegoeUI, Segoe UI"><tspan x="-50.224" y="0">Required to ensure</tspan><tspan x="-35.886" y="16">orthogonality</tspan></text>
    <line id="Line_7" data-name="Line 7" y2="60.27" transform="translate(130.518 299.301)" fill="none" stroke="#707070" stroke-width="1"/>
  </g>
</svg>
